<svg xmlns="http://www.w3.org/2000/svg" viewBox="0 0 278 43.54"><defs><style>.cls-1{isolation:isolate;}.cls-2{fill:#9f9a8a;}.cls-3,.cls-5{fill:#5c7ff7;}.cls-3{stroke:#5c7ff7;stroke-width:0.9px;}.cls-16,.cls-3,.cls-7{stroke-miterlimit:10;}.cls-4{fill:#dbd8d8;opacity:0.36;}.cls-10,.cls-11,.cls-12,.cls-13,.cls-15,.cls-19,.cls-21,.cls-4,.cls-6,.cls-8{mix-blend-mode:multiply;}.cls-6{fill:#557d9f;}.cls-15,.cls-19,.cls-21,.cls-6{opacity:0.35;}.cls-16,.cls-7{fill:none;stroke:#fff;}.cls-7{stroke-width:0.83px;}.cls-8{fill:#838383;}.cls-9{fill:#f4dddd;opacity:0.51;mix-blend-mode:overlay;}.cls-10{fill:#d9d9d9;}.cls-11{fill:#444;opacity:0.43;}.cls-12,.cls-13{fill:#7f7878;}.cls-12{opacity:0.25;}.cls-14{fill:#ca3d3d;}.cls-15{fill:#8c3d3d;}.cls-16{stroke-width:0.85px;}.cls-17{fill:#7ccbe8;}.cls-18{fill:#e4d74d;}.cls-19{fill:#967940;}.cls-20{fill:#8bd74a;}.cls-21{fill:#68a045;}</style></defs><title>Cartas</title><g class="cls-1"><g id="Camada_2" data-name="Camada 2"><g id="Camada_1-2" data-name="Camada 1"><path class="cls-2" d="M265.22,3.05H0V42.87H265.22a12.33,12.33,0,0,0,12.33-12.32V15.38A12.33,12.33,0,0,0,265.22,3.05Z"/><path class="cls-3" d="M265.22,1.25H.45V41.07H265.22a12.32,12.32,0,0,0,12.33-12.32V13.58A12.33,12.33,0,0,0,265.22,1.25Z"/><polygon class="cls-4" points="259.07 11.6 247.78 41.68 229.72 41.68 236.91 6.57 259.07 11.6"/><path class="cls-5" d="M233.64,41.78,221.51,34a3.4,3.4,0,0,1-.93-4.84L240.34,1.43A3.41,3.41,0,0,1,245,.54l12.13,7.83a3.41,3.41,0,0,1,.92,4.84L238.26,40.9A3.4,3.4,0,0,1,233.64,41.78Z"/><ellipse class="cls-6" cx="239.37" cy="21.15" rx="12.93" ry="7.07" transform="translate(82.48 203.17) rotate(-54.29)"/><path class="cls-7" d="M233.84,39.72,223.32,33a3,3,0,0,1-.71-4.32l18-25.28a3.05,3.05,0,0,1,4.1-.89l10.52,6.75a3,3,0,0,1,.71,4.32l-18,25.28A3.05,3.05,0,0,1,233.84,39.72Z"/><path class="cls-8" d="M258.65,11.25a3.46,3.46,0,0,1-.6,1.51L238.29,40.45a3.39,3.39,0,0,1-4.62.89l-12.85-8a3.92,3.92,0,0,0,.69.58l12.13,7.82a3.4,3.4,0,0,0,4.62-.88L258,13.21A3.42,3.42,0,0,0,258.65,11.25Z"/><path class="cls-9" d="M233.91,17.44q2.43,5.26,5,10.48c1.16,2.41,2.34,4.81,3.51,7.22l8.41-11.8-.39-.69c-3.74-6.45-7.63-12.81-11.51-19.19L232,13.18C232.6,14.61,233.26,16,233.91,17.44Z"/><path class="cls-9" d="M255.4,16.86,258,13.21a3.41,3.41,0,0,0-.92-4.84L246,1.2C249.14,6.41,252.31,11.61,255.4,16.86Z"/><polygon class="cls-10" points="273.01 21.16 268.52 25.21 264.02 29.26 264.02 21.16 264.02 13.07 268.52 17.12 273.01 21.16"/><rect class="cls-11" x="215.89" y="1.1" width="1.8" height="40.13"/><polygon class="cls-12" points="66.71 11.88 53.26 39.1 37.47 39.1 43.93 6.72 66.71 11.88"/><polygon class="cls-13" points="66.31 12.7 49.07 39.1 37.47 39.1 43.93 6.72 66.31 12.7"/><path class="cls-14" d="M40.61,43l-12.47-8a3.51,3.51,0,0,1-.95-5L47.5,1.5A3.48,3.48,0,0,1,52.24.59l12.47,8a3.51,3.51,0,0,1,1,5L45.36,42.07A3.51,3.51,0,0,1,40.61,43Z"/><ellipse class="cls-15" cx="46.5" cy="21.77" rx="13.29" ry="7.27" transform="translate(1.68 46.82) rotate(-54.29)"/><path class="cls-16" d="M40.82,40.86,30,33.92a3.1,3.1,0,0,1-.73-4.44l18.53-26A3.14,3.14,0,0,1,52,2.57L62.84,9.51A3.11,3.11,0,0,1,63.57,14L45,39.94A3.13,3.13,0,0,1,40.82,40.86Z"/><path class="cls-8" d="M66.32,11.6a3.57,3.57,0,0,1-.62,1.55L45.4,41.61a3.51,3.51,0,0,1-4.75.91L27.44,34.34a3.41,3.41,0,0,0,.7.6l12.47,8a3.51,3.51,0,0,0,4.75-.91L65.67,13.61A3.61,3.61,0,0,0,66.32,11.6Z"/><path class="cls-9" d="M40.9,18q2.49,5.4,5.08,10.77l3.6,7.42L58.24,24c-.14-.23-.27-.47-.41-.71C54,16.68,50,10.14,46,3.59l-7.12,10C39.54,15.05,40.23,16.51,40.9,18Z"/><path class="cls-9" d="M63,17.36l2.68-3.75a3.51,3.51,0,0,0-1-5L53.29,1.26C56.55,6.62,59.81,12,63,17.36Z"/><polygon class="cls-12" points="106.72 11.95 93.26 39.17 77.48 39.17 83.94 6.78 106.72 11.95"/><polygon class="cls-13" points="106.31 12.77 89.08 39.17 77.48 39.17 83.94 6.78 106.31 12.77"/><path class="cls-17" d="M80.57,43l-12.47-8a3.51,3.51,0,0,1-.95-5L87.46,1.5A3.49,3.49,0,0,1,92.21.59l12.47,8a3.5,3.5,0,0,1,.95,5L85.32,42.07A3.51,3.51,0,0,1,80.57,43Z"/><ellipse class="cls-6" cx="86.47" cy="21.77" rx="13.29" ry="7.27" transform="translate(18.32 79.27) rotate(-54.29)"/><path class="cls-16" d="M80.79,40.86,70,33.92a3.1,3.1,0,0,1-.73-4.44l18.53-26A3.15,3.15,0,0,1,92,2.57L102.8,9.51a3.11,3.11,0,0,1,.73,4.45L85,39.94A3.14,3.14,0,0,1,80.79,40.86Z"/><path class="cls-8" d="M106.28,11.6a3.44,3.44,0,0,1-.61,1.55L85.36,41.61a3.51,3.51,0,0,1-4.75.91L67.4,34.34a4,4,0,0,0,.7.6l12.47,8a3.51,3.51,0,0,0,4.75-.91l20.31-28.46A3.46,3.46,0,0,0,106.28,11.6Z"/><path class="cls-9" d="M80.86,18q2.49,5.4,5.08,10.77c1.2,2.47,2.41,4.94,3.61,7.42L98.2,24c-.14-.23-.27-.47-.4-.71C94,16.68,90,10.14,86,3.59l-7.13,10C79.5,15.05,80.19,16.51,80.86,18Z"/><path class="cls-9" d="M103,17.36l2.68-3.75a3.5,3.5,0,0,0-.95-5L93.26,1.26C96.51,6.62,99.77,12,103,17.36Z"/><polygon class="cls-12" points="119.28 11.95 105.82 39.17 90.04 39.17 96.5 6.78 119.28 11.95"/><polygon class="cls-13" points="118.87 12.77 101.64 39.17 90.04 39.17 96.5 6.78 118.87 12.77"/><path class="cls-17" d="M93.13,43l-12.46-8a3.51,3.51,0,0,1-1-5L100,1.5a3.49,3.49,0,0,1,4.75-.91l12.47,8a3.5,3.5,0,0,1,1,5L97.88,42.07A3.51,3.51,0,0,1,93.13,43Z"/><ellipse class="cls-6" cx="99.03" cy="21.77" rx="13.29" ry="7.27" transform="matrix(0.58, -0.81, 0.81, 0.58, 23.55, 89.47)"/><path class="cls-16" d="M93.35,40.86,82.53,33.92a3.1,3.1,0,0,1-.73-4.44l18.54-26a3.13,3.13,0,0,1,4.2-.92l10.82,6.94a3.11,3.11,0,0,1,.73,4.45l-18.53,26A3.14,3.14,0,0,1,93.35,40.86Z"/><path class="cls-8" d="M118.84,11.6a3.44,3.44,0,0,1-.61,1.55L97.92,41.61a3.51,3.51,0,0,1-4.75.91L80,34.34a3.76,3.76,0,0,0,.71.6l12.46,8a3.51,3.51,0,0,0,4.75-.91l20.31-28.46A3.46,3.46,0,0,0,118.84,11.6Z"/><path class="cls-9" d="M93.42,18q2.49,5.4,5.08,10.77c1.2,2.47,2.41,4.94,3.61,7.42L110.76,24c-.14-.23-.27-.47-.4-.71-3.85-6.63-7.85-13.17-11.83-19.72l-7.13,10C92.06,15.05,92.75,16.51,93.42,18Z"/><path class="cls-9" d="M115.51,17.36l2.68-3.75a3.5,3.5,0,0,0-1-5L105.82,1.26C109.07,6.62,112.33,12,115.51,17.36Z"/><polygon class="cls-12" points="160.12 11.96 146.66 39.18 130.88 39.18 137.34 6.79 160.12 11.96"/><polygon class="cls-13" points="159.71 12.78 142.48 39.18 130.88 39.18 137.34 6.79 159.71 12.78"/><path class="cls-18" d="M134,43l-12.47-8a3.51,3.51,0,0,1-1-5L140.86,1.5a3.49,3.49,0,0,1,4.75-.91l12.47,8a3.5,3.5,0,0,1,.95,5l-20.3,28.46A3.51,3.51,0,0,1,134,43Z"/><ellipse class="cls-19" cx="139.87" cy="21.77" rx="13.29" ry="7.27" transform="matrix(0.58, -0.81, 0.81, 0.58, 40.55, 122.64)"/><path class="cls-16" d="M134.19,40.86l-10.82-6.94a3.11,3.11,0,0,1-.73-4.44l18.54-26a3.14,3.14,0,0,1,4.21-.92l10.82,6.94a3.12,3.12,0,0,1,.73,4.45l-18.54,26A3.13,3.13,0,0,1,134.19,40.86Z"/><path class="cls-8" d="M159.69,11.6a3.57,3.57,0,0,1-.62,1.55L138.76,41.61a3.51,3.51,0,0,1-4.75.91l-13.2-8.18a3.41,3.41,0,0,0,.7.6L134,43a3.51,3.51,0,0,0,4.75-.91L159,13.61A3.55,3.55,0,0,0,159.69,11.6Z"/><path class="cls-9" d="M134.26,18q2.51,5.4,5.09,10.77c1.19,2.47,2.4,4.94,3.6,7.42L151.6,24l-.4-.71c-3.85-6.63-7.84-13.17-11.83-19.72l-7.13,10C132.91,15.05,133.6,16.51,134.26,18Z"/><path class="cls-9" d="M156.35,17.36,159,13.61a3.5,3.5,0,0,0-.95-5L146.66,1.26C149.92,6.62,153.18,12,156.35,17.36Z"/><polygon class="cls-12" points="200.04 12.42 186.59 39.64 170.8 39.64 177.27 7.26 200.04 12.42"/><polygon class="cls-13" points="199.64 13.24 182.4 39.64 170.8 39.64 177.27 7.26 199.64 13.24"/><path class="cls-20" d="M174,43l-12.47-8a3.51,3.51,0,0,1-1-5L180.91,1.5a3.49,3.49,0,0,1,4.75-.91l12.46,8a3.51,3.51,0,0,1,1,5L178.77,42.07A3.51,3.51,0,0,1,174,43Z"/><ellipse class="cls-21" cx="179.92" cy="21.77" rx="13.29" ry="7.27" transform="translate(57.22 155.15) rotate(-54.29)"/><path class="cls-16" d="M174.23,40.86l-10.81-6.94a3.1,3.1,0,0,1-.73-4.44l18.53-26a3.14,3.14,0,0,1,4.21-.92l10.82,6.94A3.11,3.11,0,0,1,197,14l-18.54,26A3.13,3.13,0,0,1,174.23,40.86Z"/><path class="cls-8" d="M199.73,11.6a3.57,3.57,0,0,1-.62,1.55l-20.3,28.46a3.51,3.51,0,0,1-4.75.91l-13.21-8.18a3.69,3.69,0,0,0,.7.6L174,43a3.51,3.51,0,0,0,4.75-.91l20.31-28.46A3.61,3.61,0,0,0,199.73,11.6Z"/><path class="cls-9" d="M174.31,18q2.49,5.4,5.08,10.77c1.2,2.47,2.41,4.94,3.6,7.42L191.65,24c-.14-.23-.27-.47-.41-.71-3.84-6.63-7.84-13.17-11.83-19.72l-7.12,10C173,15.05,173.64,16.51,174.31,18Z"/><path class="cls-9" d="M196.4,17.36l2.68-3.75a3.51,3.51,0,0,0-1-5L186.71,1.26C190,6.62,193.22,12,196.4,17.36Z"/></g></g></g></svg>