<svg xmlns="http://www.w3.org/2000/svg" xmlns:xlink="http://www.w3.org/1999/xlink" viewBox="0 0 76.19 31.96"><defs><style>.cls-1{fill:url(#Gradiente_sem_nome_27);}.cls-2{fill:url(#Gradiente_sem_nome_27-2);}.cls-3{fill:#496483;}.cls-4{fill:url(#Gradiente_sem_nome_27-3);}.cls-5{fill:url(#Gradiente_sem_nome_20);}.cls-6{fill:url(#Gradiente_sem_nome_32);}.cls-7{fill:url(#Gradiente_sem_nome_30);}.cls-8{fill:#72b02f;}.cls-9{fill:url(#Gradiente_sem_nome_23);}</style><linearGradient id="Gradiente_sem_nome_27" x1="27.29" y1="47.35" x2="67.73" y2="-6.38" gradientUnits="userSpaceOnUse"><stop offset="0" stop-color="#5991d8"/><stop offset="1" stop-color="#94c1fa"/></linearGradient><linearGradient id="Gradiente_sem_nome_27-2" x1="10.1" y1="34.41" x2="50.54" y2="-19.32" xlink:href="#Gradiente_sem_nome_27"/><linearGradient id="Gradiente_sem_nome_27-3" x1="16.23" y1="49.81" x2="16.23" y2="0.09" xlink:href="#Gradiente_sem_nome_27"/><linearGradient id="Gradiente_sem_nome_20" x1="16.23" y1="46.72" x2="16.23" y2="1.54" gradientUnits="userSpaceOnUse"><stop offset="0" stop-color="#dac3b9"/><stop offset="0.09" stop-color="#e1cec6"/><stop offset="0.29" stop-color="#eee4df"/><stop offset="0.51" stop-color="#f8f3f1"/><stop offset="0.74" stop-color="#fdfcfc"/><stop offset="1" stop-color="#fff"/></linearGradient><linearGradient id="Gradiente_sem_nome_32" x1="16.35" y1="26.86" x2="16.04" y2="-2.22" gradientUnits="userSpaceOnUse"><stop offset="0" stop-color="#72b02f"/><stop offset="1" stop-color="#82ca37"/></linearGradient><linearGradient id="Gradiente_sem_nome_30" x1="16.23" y1="22.84" x2="16.23" y2="-0.57" gradientUnits="userSpaceOnUse"><stop offset="0" stop-color="#8ad939"/><stop offset="1" stop-color="#80c835"/></linearGradient><linearGradient id="Gradiente_sem_nome_23" x1="16.23" y1="29.82" x2="16.23" y2="9.28" gradientUnits="userSpaceOnUse"><stop offset="0" stop-color="#dac3b9"/><stop offset="1" stop-color="#fff"/></linearGradient></defs><title>Ativo 13</title><g id="Camada_2" data-name="Camada 2"><g id="Camada_1-2" data-name="Camada 1"><path class="cls-1" d="M40.65,31a15,15,0,1,1,0-30.08H61.16a15,15,0,0,1,0,30.08Z"/><path class="cls-2" d="M30.81,25.41l-1.54-.57a15.93,15.93,0,0,0,.11-17.55L42.5.94H21.34A16,16,0,1,0,16,32,15.85,15.85,0,0,0,21.34,31H40.65Z"/><rect class="cls-3" x="28.24" y="3.57" width="45.33" height="24.82" rx="12.41" ry="12.41"/><circle class="cls-4" cx="16.23" cy="15.98" r="15.98"/><circle class="cls-5" cx="16.23" cy="15.98" r="14.52"/><circle class="cls-6" cx="16.23" cy="15.98" r="11.13"/><circle class="cls-7" cx="16.23" cy="15.98" r="9.43"/><path class="cls-8" d="M15.7,21.23h-.33L15,21.14l-.09,0L14.61,21l-.07,0a1.68,1.68,0,0,1-.29-.2l-.06,0,0,0-.09-.08-4-4a2.29,2.29,0,0,1,0-3.25,2.24,2.24,0,0,1,1.62-.67,2.28,2.28,0,0,1,1.63.67l2.3,2.3,3.51-4.05a2.31,2.31,0,0,1,1.74-.79,2.28,2.28,0,0,1,1.5.56,2.29,2.29,0,0,1,.23,3.24l-5.12,5.91-.07.07a.12.12,0,0,1-.05,0,.52.52,0,0,1-.11.1l-.19.15-.19.12-.18.1-.25.09h0l-.14,0-.29,0H15.7Z"/><path class="cls-9" d="M21.87,11.82a1.6,1.6,0,0,0-2.26.16l-4,4.61-2.84-2.83a1.61,1.61,0,0,0-2.26,0,1.59,1.59,0,0,0,0,2.26l4.05,4.05.07.06h0l0,0a1.12,1.12,0,0,0,.22.16l0,0,.23.1.07,0,.23.05h.39l.21,0,.11,0,.17-.07.12-.07.14-.08.14-.11.07-.06,0,0s0,0,0-.05L22,14.08A1.6,1.6,0,0,0,21.87,11.82Z"/></g></g></svg>